<svg width="24" height="24" viewBox="0 0 24 24" fill="none" xmlns="http://www.w3.org/2000/svg">
<g id="suitcase-3 1">
<g id="Group">
<g id="Group_2">
<path id="Vector" d="M2.33325 11.667C4.22792 12.4883 7.62125 13.671 11.9999 13.671C16.3786 13.671 19.7719 12.4883 21.6666 11.667" stroke="#5E94FF" stroke-width="2" stroke-linecap="round" stroke-linejoin="round"/>
<path id="Vector_2" d="M12 12.334V15.334" stroke="#5E94FF" stroke-width="2" stroke-linecap="round" stroke-linejoin="round"/>
<path id="Vector_3" d="M8.33325 6.33366V3.00033C8.33325 2.26433 8.93059 1.66699 9.66659 1.66699H14.3333C15.0693 1.66699 15.6666 2.26433 15.6666 3.00033V6.33366" stroke="#5E94FF" stroke-width="2" stroke-linecap="round" stroke-linejoin="round"/>
<path id="Vector_4" d="M18.9999 6.33398H4.99992C3.52716 6.33398 2.33325 7.52789 2.33325 9.00065V17.6673C2.33325 19.1401 3.52716 20.334 4.99992 20.334H18.9999C20.4727 20.334 21.6666 19.1401 21.6666 17.6673V9.00065C21.6666 7.52789 20.4727 6.33398 18.9999 6.33398Z" stroke="#5E94FF" stroke-width="2" stroke-linecap="round" stroke-linejoin="round"/>
</g>
</g>
</g>
</svg>
